<mxfile host="Electron" modified="2023-05-15T22:09:42.062Z" agent="Mozilla/5.0 (Windows NT 10.0; Win64; x64) AppleWebKit/537.36 (KHTML, like Gecko) draw.io/21.2.8 Chrome/112.0.5615.165 Electron/24.2.0 Safari/537.36" etag="rNOqUcIiQ_kXlo8UKo2l" version="21.2.8" type="device">
  <diagram id="oyvH_Q6J8Quz0p-YlAuX" name="Pagina-1">
    <mxGraphModel dx="2074" dy="1196" grid="1" gridSize="10" guides="1" tooltips="1" connect="1" arrows="1" fold="1" page="1" pageScale="1" pageWidth="827" pageHeight="1169" math="0" shadow="0">
      <root>
        <mxCell id="0" />
        <mxCell id="1" parent="0" />
        <mxCell id="QWe19dWb4VjT5Xv9FS85-25" style="edgeStyle=orthogonalEdgeStyle;rounded=0;orthogonalLoop=1;jettySize=auto;html=1;entryX=0;entryY=0.5;entryDx=0;entryDy=0;strokeColor=#050001;fontColor=default;exitX=1;exitY=0.5;exitDx=0;exitDy=0;" parent="1" source="1waSZjhWz7PDlrWZdaSc-65" target="1waSZjhWz7PDlrWZdaSc-77" edge="1">
          <mxGeometry relative="1" as="geometry">
            <Array as="points">
              <mxPoint x="170" y="150" />
              <mxPoint x="170" y="330" />
            </Array>
          </mxGeometry>
        </mxCell>
        <mxCell id="QWe19dWb4VjT5Xv9FS85-26" style="edgeStyle=orthogonalEdgeStyle;rounded=0;orthogonalLoop=1;jettySize=auto;html=1;entryX=0;entryY=0.5;entryDx=0;entryDy=0;strokeColor=#050001;fontColor=default;" parent="1" source="1waSZjhWz7PDlrWZdaSc-65" target="LshpYE88k_rBL2KGBDW7-19" edge="1">
          <mxGeometry relative="1" as="geometry">
            <Array as="points">
              <mxPoint x="170" y="150" />
              <mxPoint x="170" y="600" />
            </Array>
            <mxPoint x="220" y="561" as="targetPoint" />
          </mxGeometry>
        </mxCell>
        <mxCell id="LshpYE88k_rBL2KGBDW7-11" style="edgeStyle=orthogonalEdgeStyle;rounded=0;orthogonalLoop=1;jettySize=auto;html=1;entryX=0;entryY=0.5;entryDx=0;entryDy=0;" parent="1" target="LshpYE88k_rBL2KGBDW7-18" edge="1">
          <mxGeometry relative="1" as="geometry">
            <mxPoint x="220" y="383.5" as="targetPoint" />
            <Array as="points">
              <mxPoint x="170" y="150" />
              <mxPoint x="170" y="510" />
            </Array>
            <mxPoint x="150" y="150" as="sourcePoint" />
          </mxGeometry>
        </mxCell>
        <mxCell id="NJBaik0kOvniVvxULg3k-4" style="edgeStyle=orthogonalEdgeStyle;rounded=0;orthogonalLoop=1;jettySize=auto;html=1;exitX=1;exitY=0.5;exitDx=0;exitDy=0;entryX=0;entryY=0.5;entryDx=0;entryDy=0;" parent="1" source="1waSZjhWz7PDlrWZdaSc-65" target="NJBaik0kOvniVvxULg3k-2" edge="1">
          <mxGeometry relative="1" as="geometry">
            <Array as="points">
              <mxPoint x="170" y="150" />
              <mxPoint x="170" y="780" />
            </Array>
          </mxGeometry>
        </mxCell>
        <mxCell id="1waSZjhWz7PDlrWZdaSc-65" value="Mains power supply&lt;br&gt;24V 3.75A&lt;br&gt;90W" style="rounded=0;whiteSpace=wrap;html=1;strokeColor=#00FF00;strokeWidth=2;fillColor=#f5f5f5;fontColor=#333333;" parent="1" vertex="1">
          <mxGeometry x="30" y="120" width="120" height="60" as="geometry" />
        </mxCell>
        <mxCell id="1waSZjhWz7PDlrWZdaSc-69" value="OpAmps" style="rounded=0;whiteSpace=wrap;html=1;strokeColor=#00FF00;strokeWidth=2;" parent="1" vertex="1">
          <mxGeometry x="670" y="120" width="120" height="60" as="geometry" />
        </mxCell>
        <mxCell id="LshpYE88k_rBL2KGBDW7-51" style="edgeStyle=orthogonalEdgeStyle;rounded=0;orthogonalLoop=1;jettySize=auto;html=1;entryX=0;entryY=0.5;entryDx=0;entryDy=0;strokeColor=#000000;strokeWidth=1;fontColor=#000000;" parent="1" source="1waSZjhWz7PDlrWZdaSc-72" target="1waSZjhWz7PDlrWZdaSc-94" edge="1">
          <mxGeometry relative="1" as="geometry" />
        </mxCell>
        <mxCell id="1waSZjhWz7PDlrWZdaSc-72" value="5V &lt;br&gt;Discrete linear low noise low ripple voltage regulator" style="rounded=0;whiteSpace=wrap;html=1;strokeColor=#00FF00;strokeWidth=2;" parent="1" vertex="1">
          <mxGeometry x="510" y="480" width="120" height="60" as="geometry" />
        </mxCell>
        <mxCell id="SzZdDUcmJpk51UncvI9A-1" style="edgeStyle=orthogonalEdgeStyle;rounded=0;orthogonalLoop=1;jettySize=auto;html=1;entryX=0;entryY=0.5;entryDx=0;entryDy=0;" parent="1" source="1waSZjhWz7PDlrWZdaSc-77" target="1waSZjhWz7PDlrWZdaSc-78" edge="1">
          <mxGeometry relative="1" as="geometry" />
        </mxCell>
        <mxCell id="SzZdDUcmJpk51UncvI9A-17" style="edgeStyle=orthogonalEdgeStyle;rounded=0;orthogonalLoop=1;jettySize=auto;html=1;entryX=0;entryY=0.5;entryDx=0;entryDy=0;" parent="1" source="1waSZjhWz7PDlrWZdaSc-77" target="1waSZjhWz7PDlrWZdaSc-80" edge="1">
          <mxGeometry relative="1" as="geometry">
            <Array as="points">
              <mxPoint x="650" y="330" />
              <mxPoint x="650" y="420" />
            </Array>
          </mxGeometry>
        </mxCell>
        <mxCell id="1waSZjhWz7PDlrWZdaSc-77" value="12V &lt;br&gt;buck converter" style="rounded=0;whiteSpace=wrap;html=1;strokeColor=#00FF00;strokeWidth=2;" parent="1" vertex="1">
          <mxGeometry x="190" y="300" width="120" height="60" as="geometry" />
        </mxCell>
        <mxCell id="1waSZjhWz7PDlrWZdaSc-78" value="FPGA" style="rounded=0;whiteSpace=wrap;html=1;strokeColor=#00FF00;strokeWidth=2;" parent="1" vertex="1">
          <mxGeometry x="670" y="300" width="120" height="60" as="geometry" />
        </mxCell>
        <mxCell id="1waSZjhWz7PDlrWZdaSc-79" value="User interface" style="rounded=0;whiteSpace=wrap;html=1;strokeColor=#00FF00;strokeWidth=2;" parent="1" vertex="1">
          <mxGeometry x="670" y="660" width="120" height="60" as="geometry" />
        </mxCell>
        <mxCell id="1waSZjhWz7PDlrWZdaSc-80" value="Analog input selector(relay)" style="rounded=0;whiteSpace=wrap;html=1;strokeColor=#00FF00;strokeWidth=2;" parent="1" vertex="1">
          <mxGeometry x="670" y="390" width="120" height="60" as="geometry" />
        </mxCell>
        <mxCell id="1waSZjhWz7PDlrWZdaSc-81" value="" style="edgeStyle=orthogonalEdgeStyle;rounded=0;orthogonalLoop=1;jettySize=auto;html=1;entryX=0;entryY=0.5;entryDx=0;entryDy=0;strokeColor=#000000;strokeWidth=1;exitX=1;exitY=0.5;exitDx=0;exitDy=0;" parent="1" source="LshpYE88k_rBL2KGBDW7-27" target="LshpYE88k_rBL2KGBDW7-28" edge="1">
          <mxGeometry relative="1" as="geometry">
            <mxPoint x="459.0000000000002" y="830.0000000000002" as="sourcePoint" />
            <mxPoint x="523" y="830.0000000000002" as="targetPoint" />
            <Array as="points" />
          </mxGeometry>
        </mxCell>
        <mxCell id="LshpYE88k_rBL2KGBDW7-25" value="" style="edgeStyle=orthogonalEdgeStyle;rounded=0;orthogonalLoop=1;jettySize=auto;html=1;exitX=1.002;exitY=0.508;exitDx=0;exitDy=0;exitPerimeter=0;strokeColor=#000000;strokeWidth=1;" parent="1" source="LshpYE88k_rBL2KGBDW7-28" target="1waSZjhWz7PDlrWZdaSc-86" edge="1">
          <mxGeometry relative="1" as="geometry">
            <mxPoint x="643" y="830" as="sourcePoint" />
          </mxGeometry>
        </mxCell>
        <mxCell id="1waSZjhWz7PDlrWZdaSc-86" value="OpAmps" style="rounded=0;whiteSpace=wrap;html=1;strokeColor=#00FF00;strokeWidth=2;" parent="1" vertex="1">
          <mxGeometry x="670" y="750" width="120" height="60" as="geometry" />
        </mxCell>
        <mxCell id="1waSZjhWz7PDlrWZdaSc-93" value="&lt;blockquote style=&quot;margin: 0 0 0 40px; border: none; padding: 0px;&quot;&gt;&lt;p style=&quot;line-height: 120%;&quot;&gt;(ADC)&lt;br&gt;&amp;amp; &lt;br&gt;(DAC)&lt;/p&gt;&lt;/blockquote&gt;" style="rounded=0;whiteSpace=wrap;html=1;shadow=0;fillColor=none;align=left;strokeColor=#00FF00;strokeWidth=2;" parent="1" vertex="1">
          <mxGeometry x="670" y="480" width="120" height="150" as="geometry" />
        </mxCell>
        <mxCell id="1waSZjhWz7PDlrWZdaSc-94" value="V&lt;sub&gt;cc&lt;/sub&gt;" style="rounded=0;whiteSpace=wrap;html=1;shadow=0;dashed=1;fontColor=#000000;fillColor=none;strokeColor=none;strokeWidth=2;" parent="1" vertex="1">
          <mxGeometry x="670" y="487.5" width="30" height="45" as="geometry" />
        </mxCell>
        <mxCell id="LshpYE88k_rBL2KGBDW7-23" value="" style="edgeStyle=orthogonalEdgeStyle;rounded=0;orthogonalLoop=1;jettySize=auto;html=1;strokeColor=#000000;strokeWidth=1;entryX=0;entryY=0.5;entryDx=0;entryDy=0;" parent="1" source="1waSZjhWz7PDlrWZdaSc-98" target="LshpYE88k_rBL2KGBDW7-14" edge="1">
          <mxGeometry relative="1" as="geometry">
            <Array as="points" />
          </mxGeometry>
        </mxCell>
        <mxCell id="1waSZjhWz7PDlrWZdaSc-98" value="3.3V LDO" style="rounded=0;whiteSpace=wrap;html=1;strokeWidth=2;strokeColor=#00FF00;align=center;" parent="1" vertex="1">
          <mxGeometry x="510" y="570" width="120" height="60" as="geometry" />
        </mxCell>
        <mxCell id="QWe19dWb4VjT5Xv9FS85-14" style="edgeStyle=orthogonalEdgeStyle;rounded=0;orthogonalLoop=1;jettySize=auto;html=1;exitX=0.5;exitY=1;exitDx=0;exitDy=0;strokeColor=#00FF00;fontColor=default;strokeWidth=2;" parent="1" edge="1">
          <mxGeometry relative="1" as="geometry">
            <mxPoint x="580.5" y="810" as="sourcePoint" />
            <mxPoint x="580.5" y="810" as="targetPoint" />
          </mxGeometry>
        </mxCell>
        <mxCell id="QWe19dWb4VjT5Xv9FS85-18" style="edgeStyle=orthogonalEdgeStyle;rounded=0;orthogonalLoop=1;jettySize=auto;html=1;entryX=0;entryY=0.5;entryDx=0;entryDy=0;strokeColor=#000000;fontColor=default;exitX=1.003;exitY=0.501;exitDx=0;exitDy=0;exitPerimeter=0;strokeWidth=1;" parent="1" source="LshpYE88k_rBL2KGBDW7-19" target="1waSZjhWz7PDlrWZdaSc-98" edge="1">
          <mxGeometry relative="1" as="geometry">
            <mxPoint x="320" y="677.5" as="sourcePoint" />
            <Array as="points">
              <mxPoint x="350" y="600" />
              <mxPoint x="350" y="600" />
            </Array>
          </mxGeometry>
        </mxCell>
        <mxCell id="QWe19dWb4VjT5Xv9FS85-29" value="" style="edgeStyle=orthogonalEdgeStyle;rounded=0;orthogonalLoop=1;jettySize=auto;html=1;endArrow=none;entryX=0;entryY=0.5;entryDx=0;entryDy=0;" parent="1" source="1waSZjhWz7PDlrWZdaSc-65" target="LshpYE88k_rBL2KGBDW7-20" edge="1">
          <mxGeometry relative="1" as="geometry">
            <mxPoint x="150" y="151.0000000000001" as="sourcePoint" />
            <mxPoint x="219" y="151" as="targetPoint" />
          </mxGeometry>
        </mxCell>
        <mxCell id="LshpYE88k_rBL2KGBDW7-10" style="edgeStyle=orthogonalEdgeStyle;rounded=0;orthogonalLoop=1;jettySize=auto;html=1;entryX=0;entryY=0.5;entryDx=0;entryDy=0;exitX=1;exitY=0.5;exitDx=0;exitDy=0;strokeColor=#000000;strokeWidth=1;" parent="1" source="LshpYE88k_rBL2KGBDW7-18" target="1waSZjhWz7PDlrWZdaSc-72" edge="1">
          <mxGeometry relative="1" as="geometry">
            <mxPoint x="380" y="517.5" as="targetPoint" />
            <mxPoint x="330" y="507.5" as="sourcePoint" />
          </mxGeometry>
        </mxCell>
        <mxCell id="LshpYE88k_rBL2KGBDW7-14" value="V&lt;span style=&quot;font-size: 10px;&quot;&gt;&lt;sub&gt;dd&lt;/sub&gt;&lt;/span&gt;" style="rounded=0;whiteSpace=wrap;html=1;shadow=0;dashed=1;fontColor=#000000;fillColor=none;strokeColor=none;strokeWidth=2;" parent="1" vertex="1">
          <mxGeometry x="670" y="577.5" width="30" height="45" as="geometry" />
        </mxCell>
        <mxCell id="LshpYE88k_rBL2KGBDW7-21" style="edgeStyle=orthogonalEdgeStyle;rounded=0;orthogonalLoop=1;jettySize=auto;html=1;entryX=0;entryY=0.5;entryDx=0;entryDy=0;strokeColor=#000000;strokeWidth=1;exitX=1;exitY=0.5;exitDx=0;exitDy=0;" parent="1" source="LshpYE88k_rBL2KGBDW7-16" target="1waSZjhWz7PDlrWZdaSc-69" edge="1">
          <mxGeometry relative="1" as="geometry">
            <mxPoint x="510" y="151" as="targetPoint" />
            <Array as="points" />
          </mxGeometry>
        </mxCell>
        <mxCell id="LshpYE88k_rBL2KGBDW7-16" value="12V &lt;br&gt;discrete linear low noise low ripple voltage regulator" style="rounded=0;whiteSpace=wrap;html=1;strokeColor=#00FF00;strokeWidth=2;" parent="1" vertex="1">
          <mxGeometry x="510" y="120" width="120" height="60" as="geometry" />
        </mxCell>
        <mxCell id="LshpYE88k_rBL2KGBDW7-18" value="8V &lt;br&gt;buck converter" style="rounded=0;whiteSpace=wrap;html=1;strokeColor=#00FF00;strokeWidth=2;" parent="1" vertex="1">
          <mxGeometry x="190" y="480" width="120" height="60" as="geometry" />
        </mxCell>
        <mxCell id="LshpYE88k_rBL2KGBDW7-19" value="5V &lt;br&gt;buck converter" style="rounded=0;whiteSpace=wrap;html=1;strokeColor=#00FF00;strokeWidth=2;" parent="1" vertex="1">
          <mxGeometry x="190" y="570" width="120" height="60" as="geometry" />
        </mxCell>
        <mxCell id="LshpYE88k_rBL2KGBDW7-50" value="" style="edgeStyle=orthogonalEdgeStyle;rounded=0;orthogonalLoop=1;jettySize=auto;html=1;strokeColor=#000000;strokeWidth=1;fontColor=#000000;entryX=0;entryY=0.5;entryDx=0;entryDy=0;exitX=1;exitY=0.5;exitDx=0;exitDy=0;" parent="1" source="LshpYE88k_rBL2KGBDW7-20" target="LshpYE88k_rBL2KGBDW7-16" edge="1">
          <mxGeometry relative="1" as="geometry" />
        </mxCell>
        <mxCell id="SzZdDUcmJpk51UncvI9A-16" style="edgeStyle=orthogonalEdgeStyle;rounded=0;orthogonalLoop=1;jettySize=auto;html=1;entryX=0;entryY=0.5;entryDx=0;entryDy=0;" parent="1" source="LshpYE88k_rBL2KGBDW7-20" target="SzZdDUcmJpk51UncvI9A-14" edge="1">
          <mxGeometry relative="1" as="geometry">
            <Array as="points">
              <mxPoint x="490" y="150" />
              <mxPoint x="490" y="240" />
            </Array>
          </mxGeometry>
        </mxCell>
        <mxCell id="LshpYE88k_rBL2KGBDW7-20" value="15V &lt;br&gt;buck converter&amp;nbsp;" style="rounded=0;whiteSpace=wrap;html=1;strokeColor=#00FF00;strokeWidth=2;" parent="1" vertex="1">
          <mxGeometry x="190" y="120" width="120" height="60" as="geometry" />
        </mxCell>
        <mxCell id="SzZdDUcmJpk51UncvI9A-15" style="edgeStyle=orthogonalEdgeStyle;rounded=0;orthogonalLoop=1;jettySize=auto;html=1;entryX=0;entryY=0.5;entryDx=0;entryDy=0;" parent="1" source="LshpYE88k_rBL2KGBDW7-27" target="SzZdDUcmJpk51UncvI9A-6" edge="1">
          <mxGeometry relative="1" as="geometry" />
        </mxCell>
        <mxCell id="LshpYE88k_rBL2KGBDW7-27" value="-15V &lt;br&gt;SEPIC converter" style="rounded=0;whiteSpace=wrap;html=1;strokeColor=#00FF00;strokeWidth=2;" parent="1" vertex="1">
          <mxGeometry x="350" y="750" width="120" height="60" as="geometry" />
        </mxCell>
        <mxCell id="LshpYE88k_rBL2KGBDW7-28" value="-12V &lt;br&gt;Discrete linear low noise low ripple voltage regulator" style="rounded=0;whiteSpace=wrap;html=1;strokeColor=#00FF00;strokeWidth=2;" parent="1" vertex="1">
          <mxGeometry x="510" y="750" width="120" height="60" as="geometry" />
        </mxCell>
        <mxCell id="LshpYE88k_rBL2KGBDW7-49" value="&lt;h1&gt;Legend&lt;/h1&gt;&lt;p&gt;&lt;font color=&quot;#00ff00&quot;&gt;&lt;b&gt;Must have&lt;/b&gt;&lt;/font&gt;&lt;/p&gt;&lt;p&gt;&lt;font color=&quot;#cccccc&quot;&gt;&lt;b&gt;Bought in&lt;/b&gt;&lt;/font&gt;&lt;/p&gt;" style="text;html=1;strokeColor=none;fillColor=none;spacing=5;spacingTop=-20;whiteSpace=wrap;overflow=hidden;rounded=0;" parent="1" vertex="1">
          <mxGeometry x="30" y="20" width="100" height="100" as="geometry" />
        </mxCell>
        <mxCell id="yGzw6XAe2-pwmFHX-0Ah-2" style="edgeStyle=orthogonalEdgeStyle;rounded=0;orthogonalLoop=1;jettySize=auto;html=1;entryX=0;entryY=0.5;entryDx=0;entryDy=0;strokeColor=#000000;strokeWidth=1;" parent="1" source="LshpYE88k_rBL2KGBDW7-19" target="1waSZjhWz7PDlrWZdaSc-79" edge="1">
          <mxGeometry relative="1" as="geometry">
            <mxPoint x="330" y="600" as="sourcePoint" />
            <Array as="points">
              <mxPoint x="490" y="600" />
              <mxPoint x="490" y="690" />
            </Array>
            <mxPoint x="530" y="700" as="targetPoint" />
          </mxGeometry>
        </mxCell>
        <mxCell id="SzZdDUcmJpk51UncvI9A-2" value="" style="edgeStyle=orthogonalEdgeStyle;rounded=0;orthogonalLoop=1;jettySize=auto;html=1;exitX=1.002;exitY=0.508;exitDx=0;exitDy=0;exitPerimeter=0;strokeColor=#000000;strokeWidth=1;" parent="1" source="SzZdDUcmJpk51UncvI9A-6" target="SzZdDUcmJpk51UncvI9A-3" edge="1">
          <mxGeometry relative="1" as="geometry">
            <mxPoint x="643" y="922.5" as="sourcePoint" />
          </mxGeometry>
        </mxCell>
        <mxCell id="SzZdDUcmJpk51UncvI9A-3" value="OpAmps" style="rounded=0;whiteSpace=wrap;html=1;strokeColor=#00FF00;strokeWidth=2;" parent="1" vertex="1">
          <mxGeometry x="670" y="840" width="120" height="60" as="geometry" />
        </mxCell>
        <mxCell id="SzZdDUcmJpk51UncvI9A-5" style="edgeStyle=orthogonalEdgeStyle;rounded=0;orthogonalLoop=1;jettySize=auto;html=1;exitX=0.5;exitY=1;exitDx=0;exitDy=0;strokeColor=#00FF00;fontColor=default;strokeWidth=2;" parent="1" edge="1">
          <mxGeometry relative="1" as="geometry">
            <mxPoint x="580.5" y="902.5" as="sourcePoint" />
            <mxPoint x="580.5" y="902.5" as="targetPoint" />
          </mxGeometry>
        </mxCell>
        <mxCell id="SzZdDUcmJpk51UncvI9A-6" value="-12V &lt;br&gt;Discrete linear low noise low ripple voltage regulator" style="rounded=0;whiteSpace=wrap;html=1;strokeColor=#00FF00;strokeWidth=2;" parent="1" vertex="1">
          <mxGeometry x="510" y="840" width="120" height="60" as="geometry" />
        </mxCell>
        <mxCell id="SzZdDUcmJpk51UncvI9A-12" value="OpAmps" style="rounded=0;whiteSpace=wrap;html=1;strokeColor=#00FF00;strokeWidth=2;" parent="1" vertex="1">
          <mxGeometry x="670" y="210" width="120" height="60" as="geometry" />
        </mxCell>
        <mxCell id="NJBaik0kOvniVvxULg3k-5" value="" style="edgeStyle=orthogonalEdgeStyle;rounded=0;orthogonalLoop=1;jettySize=auto;html=1;" parent="1" source="SzZdDUcmJpk51UncvI9A-14" target="SzZdDUcmJpk51UncvI9A-12" edge="1">
          <mxGeometry relative="1" as="geometry" />
        </mxCell>
        <mxCell id="SzZdDUcmJpk51UncvI9A-14" value="12V &lt;br&gt;discrete linear low noise low ripple voltage regulator" style="rounded=0;whiteSpace=wrap;html=1;strokeColor=#00FF00;strokeWidth=2;" parent="1" vertex="1">
          <mxGeometry x="510" y="210" width="120" height="60" as="geometry" />
        </mxCell>
        <mxCell id="NJBaik0kOvniVvxULg3k-3" value="" style="edgeStyle=orthogonalEdgeStyle;rounded=0;orthogonalLoop=1;jettySize=auto;html=1;" parent="1" source="NJBaik0kOvniVvxULg3k-2" target="LshpYE88k_rBL2KGBDW7-27" edge="1">
          <mxGeometry relative="1" as="geometry" />
        </mxCell>
        <mxCell id="NJBaik0kOvniVvxULg3k-2" value="12V &lt;br&gt;buck converter" style="rounded=0;whiteSpace=wrap;html=1;strokeColor=#00FF00;strokeWidth=2;" parent="1" vertex="1">
          <mxGeometry x="190" y="750" width="120" height="60" as="geometry" />
        </mxCell>
      </root>
    </mxGraphModel>
  </diagram>
</mxfile>
